<svg id="icon" height="256" viewBox="0 0 128 128" width="256" xmlns="http://www.w3.org/2000/svg"><path d="m1.013 74.288a26.449 26.449 0 0 1 9.9-19.911 13.457 13.457 0 0 1 17.12-18.283 26.506 26.506 0 0 1 43.837-4.469 21.885 21.885 0 0 1 35.8 17.525c-.007.249-.043.489-.058.736a26.513 26.513 0 1 1 -23.812 46.141 26.508 26.508 0 0 1 -40.906.607 26.511 26.511 0 0 1 -41.881-22.346z" fill="#f0f5f9"/><g fill="#c1cdd3"><path d="m86.055 97.674a26.528 26.528 0 0 0 29.8-.644 26.535 26.535 0 0 1 -23.592-5 26.849 26.849 0 0 1 -6.208 5.644z"/><path d="m51.362 92.64a26.7 26.7 0 0 1 -8.457 4 26.486 26.486 0 0 0 35.538 4.445 26.555 26.555 0 0 1 -27.081-8.445z"/><path d="m42.894 96.63c-.011.011-.022.011-.034.022a.067.067 0 0 0 .045-.011z"/></g><path d="m1.011 74.293c.017-.606.061-1.205.118-1.8.016-.16.036-.318.054-.477.053-.458.116-.912.192-1.363.024-.146.047-.292.074-.437a26.172 26.172 0 0 1 .883-3.463c.025-.077.053-.152.079-.229q.254-.747.55-1.474c.034-.083.067-.166.1-.248a26.229 26.229 0 0 1 1.624-3.232l.008-.013c.3-.505.617-1 .947-1.479.017-.024.032-.051.049-.075v.007a26.7 26.7 0 0 1 5.225-5.63 13.46 13.46 0 0 1 11.022-19.17 13.385 13.385 0 0 0 -2.556 15.169 26.506 26.506 0 0 0 -5.158 35.821 26.5 26.5 0 0 0 32.65 1.477 26.507 26.507 0 0 0 40.905-.611 26.51 26.51 0 0 0 38.539-5.59 26.524 26.524 0 0 1 -42.516 14.553 26.5 26.5 0 0 1 -40.905.6l-.034.022c-.095.068-.2.126-.294.193-.468.325-.941.645-1.431.94a26.239 26.239 0 0 1 -14.377 3.756 26.507 26.507 0 0 1 -25.748-27.247z" fill="#d9e2e9"/><path d="m63.124 106.981c-.269 0-.536 0-.806-.012a27.566 27.566 0 0 1 -19.585-9.008 27.167 27.167 0 0 1 -16 4.582 27.544 27.544 0 0 1 -26.72-28.284 27.481 27.481 0 0 1 9.681-20.171 14.273 14.273 0 0 1 -1.072-5.87 14.5 14.5 0 0 1 14.478-14.072c.139 0 .278 0 .418.005a14.3 14.3 0 0 1 4.057.713 27.5 27.5 0 0 1 44.425-4.618 22.884 22.884 0 0 1 36.67 18.909 27.514 27.514 0 1 1 -24.72 48.258 27.287 27.287 0 0 1 -20.826 9.568zm-20.224-11.347a.994.994 0 0 1 .763.352 25.509 25.509 0 0 0 39.361-.586 1 1 0 0 1 .674-.368.988.988 0 0 1 .737.217 25.512 25.512 0 1 0 22.912-44.4 1 1 0 0 1 -.73-1.027c.007-.113.019-.225.029-.337s.025-.24.028-.362a20.885 20.885 0 0 0 -34.168-16.723 1 1 0 0 1 -1.406-.133 25.505 25.505 0 0 0 -42.183 4.3 1 1 0 0 1 -1.249.461 12.464 12.464 0 0 0 -15.85 16.922 1 1 0 0 1 -.277 1.206 25.509 25.509 0 0 0 30.775 40.664.993.993 0 0 1 .584-.186z" fill="#2f3a5a"/><path d="m126.99 77.178h-.029a1 1 0 0 1 -.972-1.028 25.541 25.541 0 0 0 -24.777-26.228 1 1 0 1 1 .057-2 27.545 27.545 0 0 1 26.72 28.284 1 1 0 0 1 -.999.972z" fill="#2f3a5a"/><path d="m26.763 102.544h-.03a27.517 27.517 0 0 1 -5.091-54.387 1 1 0 1 1 .425 1.954 25.517 25.517 0 0 0 4.723 50.434 1 1 0 0 1 -.027 2z" fill="#2f3a5a"/><circle cx="61.622" cy="65.954" fill="#f26176" r="20.259"/><path d="m61.622 87.213a21.259 21.259 0 1 1 21.259-21.259 21.283 21.283 0 0 1 -21.259 21.259zm0-40.518a19.259 19.259 0 1 0 19.259 19.259 19.281 19.281 0 0 0 -19.259-19.254z" fill="#2f3a5a"/><path d="m71.456 71.778-5.824-5.824 5.824-5.824-4.01-4.01-5.824 5.824-5.824-5.824-4.011 4.01 5.825 5.824-5.825 5.824 4.011 4.01 5.824-5.824 5.824 5.824z" fill="#e1e6e9"/><path d="m55.8 76.788a1 1 0 0 1 -.707-.293l-4.011-4.01a1 1 0 0 1 0-1.414l5.118-5.117-5.12-5.117a1 1 0 0 1 0-1.414l4.011-4.01a1 1 0 0 1 1.414 0l5.117 5.117 5.117-5.117a1 1 0 0 1 .707-.293 1 1 0 0 1 .707.293l4.01 4.01a1 1 0 0 1 0 1.414l-5.117 5.117 5.117 5.117a1 1 0 0 1 0 1.414l-4.01 4.01a1.029 1.029 0 0 1 -1.414 0l-5.117-5.117-5.117 5.122a1 1 0 0 1 -.705.288zm-2.6-5.01 2.6 2.6 5.117-5.117a1 1 0 0 1 1.414 0l5.117 5.117 2.6-2.6-5.117-5.117a1 1 0 0 1 0-1.414l5.117-5.117-2.6-2.6-5.117 5.117a1 1 0 0 1 -1.414 0l-5.117-5.113-2.6 2.6 5.117 5.117a1 1 0 0 1 0 1.414z" fill="#2f3a5a"/></svg>